<svg width="161" height="155" viewBox="0 0 161 155" fill="none" xmlns="http://www.w3.org/2000/svg">
<rect x="2.5" y="0.5" width="156" height="152" rx="15" stroke="url(#paint0_linear_0_1363)" stroke-width="4"/>
<path fill-rule="evenodd" clip-rule="evenodd" d="M79.0238 89.1163C80.8572 83.6856 84.3924 79.0364 89.1066 75.8587C93.826 72.6759 99.4275 71.1699 105.082 71.5606C116.238 72.3322 125.563 80.3199 128.251 91.2208H128.265V74.7903H131.5V94.5H112.063V91.2208H124.901C122.304 82.1029 114.339 75.4902 104.862 74.8324C99.9181 74.4911 95.0239 75.8067 90.8979 78.5888C86.8974 81.2869 83.87 85.1917 82.2297 89.7618C82.1802 89.9003 82.1317 90.0387 82.0846 90.1797L81.5608 91.7303L78.5 90.6693L79.0238 89.1163ZM128.976 109.886C127.143 115.316 123.608 119.964 118.895 123.142C114.175 126.324 108.574 127.83 102.92 127.439C91.765 126.668 82.44 118.681 79.752 107.781H79.735V124.21H76.5V104.5H95.9362V107.781H83.1019C85.6989 116.898 93.6637 123.51 103.14 124.168C108.084 124.509 112.978 123.191 117.103 120.409C121.104 117.712 124.132 113.807 125.771 109.235C125.821 109.099 125.869 108.961 125.916 108.822L126.439 107.269L129.5 108.333L128.976 109.886ZM73.5 46.5H105.5V49.5H73.5V46.5ZM85.6016 68.6168H51.5669C41.7189 68.6168 33.7361 76.5958 33.7361 86.4404C33.7361 96.2874 41.7189 104.264 51.5669 104.264H66.1493V107.5H51.5669C39.9328 107.5 30.5 98.0724 30.5 86.4404C30.5 77.6834 35.85 70.175 43.4609 67C35.853 63.8225 30.5049 56.3141 30.5049 47.5596C30.5049 35.93 39.9365 26.5 51.5701 26.5H103.431C112.137 26.5 119.947 31.8527 123.084 39.9707C126.221 48.0912 124.039 57.3018 117.592 63.1519L116.394 64.2395L114.59 62.2521L114.219 61.8448L115.417 60.7572C120.873 55.8045 122.721 48.0083 120.066 41.1364C117.41 34.2645 110.8 29.7336 103.431 29.7336H51.5701C41.7226 29.7336 33.7407 37.715 33.7407 47.5596C33.7407 57.4017 41.7236 65.3832 51.5701 65.3832H85.6016V68.6168ZM52.0001 46.5C51.1714 46.5 50.5 47.1727 50.5 48.0011C50.5 48.8296 51.1714 49.5 52.0001 49.5C52.8286 49.5 53.5 48.8296 53.5 48.0011C53.5 47.1727 52.8286 46.5 52.0001 46.5ZM52.0001 84.5C53.3808 84.5 54.5 85.6187 54.5 86.9987C54.5 88.3813 53.3808 89.5 52.0001 89.5C50.6192 89.5 49.5 88.3813 49.5 86.9987C49.5 85.6187 50.6192 84.5 52.0001 84.5Z" fill="#03A9F4"/>
<defs>
<linearGradient id="paint0_linear_0_1363" x1="2.5" y1="0.5" x2="2.5" y2="152.5" gradientUnits="userSpaceOnUse">
<stop stop-color="#FFE0B2"/>
<stop offset="1" stop-color="#FF9800"/>
</linearGradient>
</defs>
</svg>
