<svg width="161" height="155" viewBox="0 0 161 155" fill="none" xmlns="http://www.w3.org/2000/svg">
<rect x="2.5" y="0.5" width="156" height="152" rx="15" stroke="url(#paint0_linear_0_1375)" stroke-width="4"/>
<path fill-rule="evenodd" clip-rule="evenodd" d="M97 66V75H94V66H97ZM50.0984 105.285H46.8576C42.6536 105.285 38.6179 103.612 35.6454 100.632C32.6704 97.6552 31 93.6133 31 89.4029V76.4224C31 72.2096 32.6704 68.1701 35.6454 65.1906C38.2326 62.5994 41.6246 60.9948 45.2336 60.6236C45.9334 51.729 49.718 43.3252 56.0654 36.9681C63.0761 29.9467 72.5838 26 82.4988 26C92.4137 26 101.924 29.9467 108.935 36.9681C115.277 43.3228 119.106 51.7265 119.776 60.6236C123.38 60.9997 126.77 62.6018 129.355 65.1906C132.327 68.1701 134 72.2096 134 76.4224V89.4029C134 93.6133 132.327 97.6552 129.355 100.632C126.765 103.226 123.368 104.83 119.757 105.202V105.627C119.757 109.5 118.223 113.215 115.489 115.952C112.756 118.69 109.047 120.229 105.182 120.229H98.2174C97.8857 122.119 96.9835 123.878 95.6106 125.25C93.8525 127.011 91.4676 128 88.9803 128H82.4988C80.0139 128 77.6267 127.011 75.8685 125.25C74.1103 123.489 73.1227 121.098 73.1227 118.61C73.1227 116.119 74.1103 113.73 75.8685 111.967C77.6267 110.206 80.0115 109.217 82.4988 109.217H88.9803C91.4676 109.217 93.8525 110.206 95.6131 111.967C96.9859 113.342 97.8882 115.1 98.2174 116.988H105.182C108.188 116.988 111.076 115.791 113.202 113.662C115.328 111.532 116.523 108.64 116.523 105.627V105.285H114.902C113.273 105.285 111.712 104.638 110.561 103.485C109.41 102.332 108.764 100.769 108.764 99.1376V66.6877C108.764 65.0562 109.41 63.4957 110.559 62.3429C111.71 61.1877 113.273 60.5405 114.902 60.5405H116.275C115.594 52.5984 112.141 45.1154 106.469 39.4347C100.112 33.0703 91.4895 29.49 82.4988 29.49C73.508 29.49 64.8855 33.0703 58.5307 39.4347C52.8563 45.1178 49.4448 52.6033 48.7377 60.5405H50.0984C51.7273 60.5405 53.2879 61.1877 54.4389 62.3429C55.5899 63.4957 56.2361 65.0562 56.2361 66.6877V99.1376C56.2361 100.769 55.5899 102.332 54.4389 103.485C53.2879 104.638 51.7273 105.285 50.0984 105.285ZM49.8329 102H46.6659C43.3058 102 40.0863 100.63 37.7104 98.1917C35.3345 95.7532 34 92.4463 34 89V76C34 72.5537 35.3345 69.2468 37.7104 66.8083C40.0863 64.3697 43.3058 63 46.6659 63H49.8329C50.6718 63 51.4796 63.3424 52.073 63.9539C52.6664 64.5629 53 65.3872 53 66.2506V98.7494C53 99.6128 52.6664 100.44 52.073 101.049C51.4796 101.658 50.6718 102 49.8329 102ZM118.333 102H115.167C114.326 102 113.521 101.658 112.927 101.049C112.334 100.44 112 99.6128 112 98.7494V66.2506C112 65.3872 112.334 64.5629 112.927 63.9539C113.521 63.3424 114.326 63 115.167 63H118.333C121.693 63 124.915 64.3697 127.292 66.8083C129.668 69.2468 131 72.5537 131 76V89C131 92.4463 129.668 95.7532 127.292 98.1917C124.915 100.63 121.693 102 118.333 102ZM88.6675 125H82.3325C80.6547 125 79.0411 124.315 77.8542 123.097C76.6673 121.879 76 120.223 76 118.501C76 116.777 76.6673 115.123 77.8542 113.903C79.0411 112.685 80.6547 112 82.3325 112H88.6675C90.3477 112 91.9565 112.685 93.1458 113.903C94.3327 115.123 95 116.777 95 118.501C95 120.223 94.3327 121.879 93.1458 123.097C91.9565 124.315 90.3477 125 88.6675 125ZM70.3205 90.0995C70.7716 90.5201 71.2442 90.9161 71.7313 91.2826C74.6943 93.5184 78.2908 94.736 82 94.736C85.6996 94.736 89.2865 93.5234 92.2447 91.3023C92.7414 90.9309 93.2212 90.5275 93.6819 90.0995L94.8575 89L97 91.413L95.8244 92.51C92.0432 96.0421 87.1152 98 82 98C76.8872 98 71.9568 96.0421 68.178 92.51L67 91.4105L69.1449 89L70.3205 90.0995ZM71 66V75H68V66H71Z" fill="#03A9F4"/>
<defs>
<linearGradient id="paint0_linear_0_1375" x1="2.5" y1="0.5" x2="2.5" y2="152.5" gradientUnits="userSpaceOnUse">
<stop stop-color="#FFE0B2"/>
<stop offset="1" stop-color="#FF9800"/>
</linearGradient>
</defs>
</svg>
