<svg width="161" height="155" viewBox="0 0 161 155" fill="none" xmlns="http://www.w3.org/2000/svg">
<rect x="2.5" y="0.5" width="156" height="152" rx="15" stroke="url(#paint0_linear_0_1350)" stroke-width="4"/>
<path fill-rule="evenodd" clip-rule="evenodd" d="M62.6113 63.7201C63.2189 64.3963 64.0911 64.7712 64.9976 64.7712C65.9066 64.7712 66.7788 64.3963 67.3839 63.7201L70.1059 60.6822C72.3991 58.1219 76.0693 57.3061 79.2396 58.6193C80.788 59.2612 82.0963 60.371 82.9906 61.7896C83.8824 63.2008 84.3234 64.8594 84.2401 66.5278L84.0343 70.5801C83.9878 71.4842 84.3234 72.3931 84.9653 73.035C85.6072 73.6769 86.5162 74.0101 87.4203 73.9636L91.4726 73.7602C93.1558 73.6769 94.8242 74.1228 96.2453 75.0269C97.6491 75.9211 98.7467 77.2196 99.3838 78.7582C100.697 81.926 99.8664 85.5888 97.3208 87.8869L94.3073 90.6088C93.6311 91.2189 93.244 92.0886 93.244 93C93.244 93.9114 93.6311 94.7811 94.3073 95.3912L97.3208 98.1131C99.8664 100.411 100.697 104.074 99.3838 107.242C98.7467 108.78 97.6491 110.079 96.2477 110.973C94.8267 111.877 93.1558 112.323 91.4726 112.24L87.4203 112.036C86.5162 111.99 85.6121 112.333 84.9727 112.972C84.3332 113.612 83.9878 114.516 84.0343 115.42L84.2401 119.472C84.3234 121.143 83.8824 122.799 82.9906 124.21C82.0963 125.629 80.788 126.739 79.2396 127.381C76.0693 128.694 72.3991 127.878 70.1059 125.318L67.3839 122.28C66.7788 121.604 65.9066 121.226 64.9976 121.226C64.0911 121.226 63.2189 121.604 62.6113 122.28L59.8917 125.318C57.5985 127.878 53.9259 128.694 50.7556 127.381C49.2096 126.739 47.9037 125.631 47.0095 124.215C46.1152 122.802 45.6742 121.143 45.7575 119.472L45.9633 115.42C46.0099 114.518 45.6595 113.614 45.0225 112.977C44.383 112.338 43.4814 111.99 42.5774 112.036L38.525 112.24C36.8517 112.323 35.1881 111.88 33.7744 110.985C32.3632 110.089 31.2582 108.785 30.6163 107.242C29.3056 104.074 30.1288 100.409 32.6744 98.1131L35.6903 95.3912C36.3665 94.7811 36.7488 93.9089 36.7488 93C36.7488 92.0911 36.3665 91.2189 35.6903 90.6088L32.6744 87.8869C30.1288 85.5912 29.3056 81.926 30.6163 78.7582C31.2582 77.2147 32.3632 75.9113 33.7744 75.0171C35.1881 74.1204 36.8517 73.6769 38.525 73.7602L42.5774 73.9636C43.4814 74.0101 44.3855 73.6671 45.0249 73.0277C45.6644 72.3882 46.0099 71.4842 45.9633 70.5801L45.7575 66.5278C45.6742 64.8569 46.1152 63.1983 47.0095 61.7847C47.9037 60.3686 49.2096 59.2612 50.7556 58.6193C53.9259 57.3061 57.5985 58.1219 59.8917 60.6822L62.6113 63.7201ZM109.501 47C110.329 47 111 47.6714 111 48.5011C111 49.3286 110.329 50 109.501 50C108.671 50 108 49.3286 108 48.5011C108 47.6714 108.671 47 109.501 47ZM119.725 30.8783C121.833 30.0586 124.236 30.5617 125.836 32.1617C127.433 33.7617 127.939 36.1641 127.119 38.2721L124.945 43.8623C124.817 44.1911 124.918 44.5641 125.193 44.785L129.865 48.542C131.625 49.9555 132.391 52.2917 131.807 54.4708C131.22 56.6573 129.399 58.2917 127.164 58.6377L121.237 59.5579C120.888 59.6119 120.611 59.8794 120.557 60.2303L119.639 66.1616C119.293 68.3972 117.659 70.2205 115.475 70.807C113.293 71.391 110.957 70.6229 109.543 68.8634L105.786 64.1911C105.565 63.9187 105.192 63.8107 104.863 63.9383L99.2727 66.1125C97.1647 66.9346 94.7621 66.4291 93.162 64.8291C91.562 63.2291 91.0589 60.8291 91.8786 58.7211L94.0504 53.131C94.178 52.7997 94.0799 52.4267 93.8026 52.2058L89.1275 48.4439C87.3728 47.0304 86.6096 44.6942 87.1937 42.5175C87.7802 40.3334 89.6012 38.7015 91.8344 38.3555L97.761 37.4402C98.1095 37.3862 98.3844 37.1114 98.4408 36.7604L99.3562 30.839C99.7022 28.6034 101.334 26.7801 103.521 26.1936C105.705 25.6096 108.034 26.3727 109.45 28.1347L113.21 32.8071C113.43 33.0819 113.803 33.185 114.132 33.0549L119.725 30.8783ZM59.825 66.6228L57.1336 63.619C55.7455 62.0686 53.524 61.5817 51.6078 62.3763C49.694 63.1708 48.4755 65.1015 48.5796 67.1679L48.7807 71.1771C48.8703 72.9479 48.2017 74.6945 46.9468 75.9493C45.692 77.2041 43.9453 77.8703 42.1745 77.7831L38.1652 77.5796C36.0988 77.4779 34.168 78.6964 33.3758 80.6077C32.5788 82.5263 33.0755 84.7452 34.6186 86.1382L37.6032 88.8271C38.9234 90.0214 39.6744 91.7219 39.6744 93.5C39.6744 95.2805 38.9234 96.9786 37.6032 98.1729L34.6186 100.864C33.0755 102.255 32.5788 104.474 33.3758 106.392C34.168 108.304 36.0988 109.522 38.1652 109.418L42.1745 109.219C43.9478 109.13 45.6896 109.798 46.9444 111.053C48.1969 112.308 48.8703 114.055 48.7807 115.823L48.5796 119.832C48.4755 121.898 49.694 123.829 51.6078 124.624C53.524 125.418 55.7455 124.931 57.1336 123.381L59.825 120.377C61.0145 119.05 62.7175 118.304 64.4981 118.304C66.2786 118.304 67.9841 119.05 69.1735 120.377L71.865 123.381C73.2531 124.931 75.4721 125.416 77.3907 124.624C79.3021 123.829 80.5255 121.901 80.4189 119.832L80.2178 115.823C80.1282 114.052 80.7968 112.306 82.0517 111.051C83.3066 109.796 85.0532 109.13 86.8241 109.219L90.8334 109.418C92.8998 109.522 94.8354 108.308 95.6275 106.392C96.4221 104.471 95.9182 102.257 94.3751 100.862L91.3954 98.1705C90.0727 96.9786 89.3193 95.2805 89.3193 93.5C89.3193 91.7195 90.0727 90.0214 91.3954 88.8295L94.3751 86.1382C95.9182 84.7452 96.4221 82.5287 95.6275 80.6077C94.8329 78.6939 92.8998 77.4779 90.8334 77.5796L86.8241 77.7831C85.0508 77.8703 83.3017 77.2138 82.0444 75.9566C80.7847 74.6993 80.1282 72.9503 80.2178 71.1771L80.4189 67.1679C80.5255 65.0991 79.3021 63.1708 77.3907 62.3763C75.4721 61.5841 73.2531 62.0686 71.865 63.619L69.1735 66.6228C67.9841 67.9503 66.2786 68.6989 64.4981 68.6989C62.7175 68.6989 61.0145 67.9503 59.825 66.6228ZM74 93C74 97.9692 69.9698 102 64.9988 102C60.0302 102 56 97.9692 56 93C56 88.0283 60.0302 84 64.9988 84C69.9698 84 74 88.0283 74 93ZM70 93.5C70 90.46 67.5382 88 64.4988 88C61.4618 88 59 90.46 59 93.5C59 96.5377 61.4618 99 64.4988 99C67.5382 99 70 96.5377 70 93.5ZM121.159 33.581L115.668 35.7181C114.09 36.3325 112.295 35.8506 111.233 34.5303L107.542 29.9429C106.918 29.167 105.894 28.8273 104.93 29.0851C103.966 29.3453 103.248 30.1476 103.096 31.1331L102.195 36.9469C101.937 38.6214 100.622 39.9369 98.9474 40.1971L93.1289 41.0958C92.1458 41.2476 91.3435 41.9656 91.0857 42.9293C90.8279 43.8883 91.1628 44.9147 91.9386 45.5387L96.5284 49.2298C97.8488 50.2924 98.3258 52.0873 97.7138 53.6655L95.5792 59.154C95.2178 60.084 95.4394 61.1417 96.1454 61.8477C96.8513 62.5536 97.909 62.7753 98.839 62.4139L104.327 60.2792C105.906 59.6648 107.703 60.1515 108.763 61.4694L112.452 66.0592C113.076 66.8351 114.102 67.1724 115.064 66.9146C116.027 66.6568 116.748 65.852 116.899 64.869L117.801 59.0456C118.061 57.3711 119.376 56.0604 121.051 55.8026L126.867 54.8991C127.852 54.7473 128.657 54.0269 128.915 53.0631C129.173 52.1018 128.833 51.0754 128.057 50.4514L123.47 46.7626C122.149 45.7025 121.67 43.9051 122.282 42.327L124.417 36.8385C124.778 35.9084 124.556 34.8507 123.853 34.1448C123.147 33.4413 122.089 33.2196 121.159 33.581Z" fill="#03A9F4"/>
<defs>
<linearGradient id="paint0_linear_0_1350" x1="2.5" y1="0.5" x2="2.5" y2="152.5" gradientUnits="userSpaceOnUse">
<stop stop-color="#FFE0B2"/>
<stop offset="1" stop-color="#FF9800"/>
</linearGradient>
</defs>
</svg>
